name C:\Users\r0593348\3dpredictsim\Results\Batchsim_tmt_linear_v2\Pog_s1_tmt_aCst_d02_k500_ig24_act.mot
datacolumns 128
datarows 4
range 0.65016256 0.68917232
endheader
time	pelvis_tilt	pelvis_list	pelvis_rotation	pelvis_tx	pelvis_ty	pelvis_tz	hip_flexion_l	hip_adduction_l	hip_rotation_l	hip_flexion_r	hip_adduction_r	hip_rotation_r	knee_angle_l	knee_angle_r	ankle_angle_l	ankle_angle_r	subtalar_angle_l	subtalar_angle_r	tmt_angle_l	tmt_angle_r	mtp_angle_l	mtp_angle_r	lumbar_extension	lumbar_bending	lumbar_rotation	arm_flex_l	arm_add_l	arm_rot_l	arm_flex_r	arm_add_r	arm_rot_r	elbow_flex_l	elbow_flex_r	pro_sup_l	pro_sup_r	glut_med1_l/activation	glut_med2_l/activation	glut_med3_l/activation	glut_min1_l/activation	glut_min2_l/activation	glut_min3_l/activation	semimem_l/activation	semiten_l/activation	bifemlh_l/activation	bifemsh_l/activation	sar_l/activation	add_long_l/activation	add_brev_l/activation	add_mag1_l/activation	add_mag2_l/activation	add_mag3_l/activation	tfl_l/activation	pect_l/activation	grac_l/activation	glut_max1_l/activation	glut_max2_l/activation	glut_max3_l/activation	iliacus_l/activation	psoas_l/activation	quad_fem_l/activation	gem_l/activation	peri_l/activation	rect_fem_l/activation	vas_med_l/activation	vas_int_l/activation	vas_lat_l/activation	med_gas_l/activation	lat_gas_l/activation	soleus_l/activation	tib_post_l/activation	flex_dig_l/activation	flex_hal_l/activation	tib_ant_l/activation	per_brev_l/activation	per_long_l/activation	per_tert_l/activation	ext_dig_l/activation	ext_hal_l/activation	ercspn_l/activation	intobl_l/activation	extobl_l/activation	glut_med1_r/activation	glut_med2_r/activation	glut_med3_r/activation	glut_min1_r/activation	glut_min2_r/activation	glut_min3_r/activation	semimem_r/activation	semiten_r/activation	bifemlh_r/activation	bifemsh_r/activation	sar_r/activation	add_long_r/activation	add_brev_r/activation	add_mag1_r/activation	add_mag2_r/activation	add_mag3_r/activation	tfl_r/activation	pect_r/activation	grac_r/activation	glut_max1_r/activation	glut_max2_r/activation	glut_max3_r/activation	iliacus_r/activation	psoas_r/activation	quad_fem_r/activation	gem_r/activation	peri_r/activation	rect_fem_r/activation	vas_med_r/activation	vas_int_r/activation	vas_lat_r/activation	med_gas_r/activation	lat_gas_r/activation	soleus_r/activation	tib_post_r/activation	flex_dig_r/activation	flex_hal_r/activation	tib_ant_r/activation	per_brev_r/activation	per_long_r/activation	per_tert_r/activation	ext_dig_r/activation	ext_hal_r/activation	ercspn_r/activation	intobl_r/activation	extobl_r/activation	
          0.65016256	          3.18054494	         -2.22306605	         -9.51918706	          0.81270320	          0.86643035	          0.00117410	         29.86022721	         -2.96637058	         -2.69224601	        -24.21445301	         -0.65308333	         -1.09339664	        -15.67951730	        -15.50354762	        -36.12187391	        -25.57935836	         -5.58548655	         -2.13802949	         -0.12564499	          1.59733962	         -0.16161871	         42.44575542	         -1.70999881	          6.24999176	          2.25372069	          1.28840673	        -13.54746459	         12.52759418	        -15.34452161	        -14.09388212	         14.23867647	         17.65477730	         16.04589443	         86.51662706	         86.51662706	          0.09065788	          0.06131917	          0.12062340	          0.05014988	          0.05009172	          0.05003115	          0.10642965	          0.09547293	          0.09934752	          0.12550348	          0.06355426	          0.05000095	          0.08745010	          0.13335067	          0.16831432	          0.16707591	          0.05000116	          0.05000267	          0.14030962	          0.06718740	          0.16032740	          0.21509731	          0.10923160	          0.10792200	          0.12740087	          0.06082673	          0.08399775	          0.05000018	          0.05000038	          0.05000035	          0.05000026	          0.06083627	          0.06083634	          0.07974739	          0.16143907	          0.08639873	          0.16208114	          0.06059275	          0.18101090	          0.14061122	          0.18796963	          0.05000934	          0.06155405	          0.05000006	          0.19738222	          0.11220571	          0.12092992	          0.05000033	          0.05000021	          0.13330324	          0.05063792	          0.05000081	          0.08242506	          0.05022973	          0.05000708	          0.06083598	          0.07405589	          0.32768096	          0.22142581	          0.20866469	          0.06067792	          0.05001004	          0.09686563	          0.13940518	          0.07401053	          0.05000587	          0.05000484	          0.05000646	          0.32812886	          0.50645884	          0.05000145	          0.05000178	          0.05000086	          0.26032256	          0.05037461	          0.05776694	          0.05000236	          0.05440432	          0.08680708	          0.32115958	          0.17098965	          0.13338451	          0.15708826	          0.13167659	          0.26906174	          0.15306778	          0.58635011	          0.57319395	          0.06083683	          0.05568038	          0.05000011	          0.07825287	
          0.66316581	          3.20016515	         -2.37265272	         -9.39506055	          0.83559098	          0.86561716	          0.00073482	         29.49457863	         -2.83198182	         -2.53155474	        -23.81877490	         -0.85439760	         -1.46440012	        -17.24831773	        -17.86440882	        -33.69596757	        -28.70844156	         -5.12367463	         -2.44310199	         -0.00772164	          1.30627028	          0.74703099	         40.99583938	         -1.39350197	          5.96153289	          2.37255692	         -0.95936841	        -13.49483046	         12.89922109	        -15.11204320	        -14.19388075	         14.25752097	         18.04551099	         15.53505045	         86.51662706	         86.51662706	          0.14195139	          0.05039749	          0.25397718	          0.08422758	          0.06083629	          0.05000105	          0.08747255	          0.07846746	          0.08165188	          0.10314900	          0.05223437	          0.07402063	          0.07402113	          0.10959887	          0.13833500	          0.16687768	          0.05000051	          0.07401974	          0.11531807	          0.05522037	          0.14488177	          0.19617314	          0.08977552	          0.08869916	          0.10470859	          0.05000066	          0.33216324	          0.05000016	          0.05000213	          0.05000308	          0.25498785	          0.05000025	          0.05000033	          0.06554293	          0.19216531	          0.07100971	          0.13321328	          0.07402031	          0.14876966	          0.11556582	          0.22158116	          0.07402159	          0.07402172	          0.05000039	          0.16222486	          0.09221978	          0.09944503	          0.05000030	          0.05000014	          0.10955988	          0.05000248	          0.05000071	          0.13410349	          0.05000035	          0.05000062	          0.05000045	          0.06086798	          0.26931503	          0.18198640	          0.17149812	          0.05000305	          0.05000162	          0.07961251	          0.11457553	          0.06082832	          0.05000473	          0.05000329	          0.05000259	          0.26968299	          0.41624908	          0.05000031	          0.05000064	          0.05000037	          0.21395424	          0.05375317	          0.05156885	          0.05000332	          0.13890097	          0.12313144	          0.26395522	          0.14053319	          0.10962640	          0.12910796	          0.16630273	          0.22113920	          0.12580411	          0.75523890	          0.77016414	          0.05000080	          0.07030546	          0.05000004	          0.08092882	
          0.67616906	          3.22446655	         -2.49815913	         -9.22840389	          0.85827943	          0.86429538	          0.00026187	         28.92727653	         -2.64660901	         -2.36175247	        -23.17484443	         -1.04993395	         -1.78192580	        -19.40156093	        -20.67685145	        -30.29634480	        -31.11019829	         -4.62109033	         -2.79028836	          0.44584750	          0.96829008	          3.32714659	         37.62893789	         -1.10538130	          5.62699644	          2.47670012	         -3.16882359	        -13.47261683	         13.37790680	        -14.81136366	        -14.27586268	         14.23990287	         18.37957624	         14.97522266	         86.51662706	         86.51662706	          0.21373009	          0.26963793	          0.47397032	          0.06922546	          0.05000172	          0.38799264	          0.07189207	          0.06449097	          0.06710817	          0.08477627	          0.08080563	          0.06083628	          0.06083668	          0.09007738	          0.11369506	          0.13715375	          0.07402929	          0.06083644	          0.09477788	          0.15009345	          0.13662745	          0.16123111	          0.07378508	          0.07290066	          0.24265018	          0.19741083	          0.33815097	          0.07402523	          0.25133198	          0.23540491	          0.30373435	          0.13332878	          0.16222272	          0.10958055	          0.39661068	          0.50238192	          0.49879502	          0.06083591	          0.13332946	          0.13706229	          0.18211343	          0.06083698	          0.06083714	          0.05000006	          0.13332958	          0.07579372	          0.08173223	          0.05000423	          0.05219679	          0.09004545	          0.05000386	          0.05000426	          0.19473515	          0.05000190	          0.05002905	          0.05000043	          0.05002778	          0.22134525	          0.33293477	          0.32219826	          0.13191344	          0.15584930	          0.06543230	          0.09416823	          0.05000726	          0.05001717	          0.05000947	          0.05002836	          0.22164742	          0.34210734	          0.06083420	          0.06960941	          0.05006479	          0.17584500	          0.05264751	          0.07402870	          0.07402053	          0.14715862	          0.10120181	          0.22148249	          0.11550161	          0.09010008	          0.10611148	          0.20669833	          0.23526993	          0.12338645	          0.62071719	          0.87688770	          0.42780678	          0.07856418	          0.05000013	          0.07415326	
          0.68917232	          3.24544927	         -2.58636603	         -9.02293221	          0.88036188	          0.86302313	         -0.00025124	         28.03496569	         -2.37985401	         -2.17814855	        -22.26987546	         -1.24443533	         -2.02304331	        -21.29257764	        -23.76486879	        -25.87789348	        -33.06804609	         -4.06100998	         -3.14263699	          0.95067534	          0.58988403	          5.75713240	         32.38407470	         -0.86613725	          5.23986367	          2.56377020	         -5.26770954	        -13.46013632	         14.00306879	        -14.35087543	        -14.30951928	         14.17136047	         18.60279174	         14.30327718	         86.51662706	         86.51662706	          0.25824350	          0.38542848	          0.54437862	          0.05948818	          0.24066496	          0.31888533	          0.05908679	          0.05300406	          0.05515501	          0.06967617	          0.06641337	          0.05000031	          0.05000062	          0.07403305	          0.09344406	          0.11972033	          0.06084349	          0.05000142	          0.07789640	          0.26330886	          0.19614718	          0.13251343	          0.06064265	          0.05991577	          0.27607956	          0.16224924	          0.27792127	          0.06083999	          0.20656638	          0.26782443	          0.35656822	          0.10958046	          0.13332787	          0.09006224	          0.39215106	          0.43049067	          0.40995063	          0.05000002	          0.10958101	          0.11264893	          0.14967567	          0.05000081	          0.05000108	          0.05000005	          0.10958109	          0.06229346	          0.06717513	          0.05000207	          0.05000094	          0.07400696	          0.05000208	          0.05001980	          0.24121119	          0.05000038	          0.05000362	          0.05000012	          0.05000080	          0.18191964	          0.34891586	          0.26481149	          0.15821292	          0.12809785	          0.05377817	          0.07739584	          0.05000066	          0.05004982	          0.07405584	          0.09037500	          0.18216788	          0.28117164	          0.05000100	          0.06084312	          0.06083911	          0.14452372	          0.06551604	          0.06084333	          0.06083645	          0.20172824	          0.11512336	          0.24409211	          0.09492861	          0.07405176	          0.08721110	          0.25055496	          0.23659770	          0.11776123	          0.62108326	          0.93405454	          0.35160642	          0.09587128	          0.05000005	          0.06094522	
